<svg xmlns="http://www.w3.org/2000/svg" xmlns:xlink="http://www.w3.org/1999/xlink" version="1.1" x="0px" y="0px" viewBox="0 0 100 125" enable-background="new 0 0 100 100" xml:space="preserve"><path fill="#FFFFFF" d="M67.368,67.063c-0.453,0-0.891-0.247-1.112-0.678c-0.316-0.614-0.074-1.367,0.539-1.684c0.34-0.175,0.674-0.357,0.998-0.548  c2.866-1.66,4.967-3.69,6.079-5.873c0.313-0.616,1.066-0.86,1.681-0.546c0.615,0.313,0.859,1.065,0.546,1.681  c-1.331,2.613-3.769,4.999-7.047,6.898c-0.358,0.21-0.731,0.414-1.112,0.61C67.757,67.019,67.561,67.063,67.368,67.063z"/><path  fill="#FFFFFF" d="M74.175,46.222c-0.241-1.902-0.364-3.824-0.364-5.751c0-2.995,0.31-5.974,0.89-8.887c0.153-0.514,0.264-1.036,0.33-1.564  c0.021-0.089,0.035-0.18,0.057-0.27l-0.023-0.005c0.029-0.304,0.049-0.608,0.049-0.916c0-3.08-1.499-6.019-4.323-8.514  c-1.163-1.458-2.757-2.791-4.742-3.942C61.741,13.874,56.043,12.498,50,12.498c-6.041,0-11.741,1.375-16.049,3.874  c-1.986,1.152-3.579,2.486-4.742,3.944c-2.822,2.496-4.321,5.434-4.321,8.512c0,0.565,0.054,1.125,0.153,1.677  c0.45,2.621,1.128,7.485,1.128,10.052c0,1.902-0.121,3.797-0.356,5.674c-3.438,2.947-5.268,6.422-5.268,10.09v11.457  c0,4.833,3.154,9.324,8.884,12.647C35.1,83.717,42.55,85.361,50,85.361s14.9-1.645,20.571-4.935  c5.729-3.322,8.884-7.814,8.884-12.647V56.322C79.455,52.653,77.62,49.175,74.175,46.222z M28.408,36.595  c1.117,1.125,2.483,2.168,4.092,3.101c4.824,2.799,11.162,4.198,17.5,4.198s12.676-1.399,17.502-4.198  c1.55-0.899,2.878-1.899,3.973-2.978c-0.098,1.247-0.164,2.498-0.164,3.753c0,4.06,0.511,8.094,1.517,11.994  c-0.07,3.21-2.347,6.273-6.427,8.641c-9.044,5.244-23.758,5.243-32.799,0c-4.082-2.367-6.358-5.431-6.428-8.642  c0.992-3.871,1.495-7.875,1.495-11.905C28.669,39.486,28.564,38.078,28.408,36.595z M72.531,29.756  c-0.07,0.309-0.132,0.62-0.196,0.93c-0.694,2.544-2.779,4.928-6.087,6.847c-8.96,5.197-23.537,5.196-32.494,0  c-3.578-2.076-5.753-4.692-6.253-7.469c-0.003-0.022-0.008-0.048-0.011-0.07c-0.041-0.236-0.047-0.475-0.063-0.713  c0.926,2.718,3.162,5.188,6.523,7.139c4.308,2.499,10.008,3.875,16.049,3.875c6.043,0,11.741-1.376,16.047-3.875  c3.383-1.962,5.628-4.449,6.544-7.187C72.575,29.408,72.555,29.582,72.531,29.756z M35.206,18.534  c3.933-2.28,9.187-3.536,14.794-3.536c5.609,0,10.862,1.256,14.793,3.537c3.718,2.156,5.765,4.947,5.765,7.861  s-2.047,5.706-5.765,7.862c-3.931,2.281-9.185,3.537-14.793,3.537c-5.607,0-10.861-1.256-14.793-3.537  c-3.718-2.157-5.765-4.949-5.765-7.862S31.489,20.69,35.206,18.534z M76.955,67.779c0,3.904-2.713,7.628-7.638,10.485  c-10.652,6.177-27.984,6.178-38.634,0c-4.926-2.857-7.639-6.581-7.639-10.485v-4.291c1.499,2.034,3.643,3.894,6.384,5.483  C35.1,72.261,42.55,73.905,50,73.905s14.899-1.645,20.571-4.934c2.741-1.59,4.885-3.449,6.384-5.483V67.779z M69.317,66.81  c-10.652,6.175-27.984,6.176-38.634,0c-4.926-2.857-7.639-6.582-7.639-10.487c0-1.932,0.671-3.824,1.955-5.598  c-0.098,0.423-0.179,0.851-0.288,1.272l-0.04,0.314c0,4.195,2.727,8.087,7.676,10.956c4.866,2.822,11.26,4.234,17.652,4.234  c6.394,0,12.787-1.412,17.654-4.234c4.949-2.871,7.675-6.762,7.675-10.956l-0.041-0.316c-0.11-0.42-0.191-0.847-0.289-1.27  c1.285,1.775,1.956,3.667,1.956,5.598C76.955,60.229,74.242,63.952,69.317,66.81z"/></svg>
