<svg xmlns="http://www.w3.org/2000/svg" xmlns:xlink="http://www.w3.org/1999/xlink" version="1.1" x="0px" y="0px" viewBox="0 0 48 60" enable-background="new 0 0 48 48" xml:space="preserve"><g><path fill="none" stroke="#FFFFFF" stroke-width="2" stroke-miterlimit="10" d="M43.3,47H4.7c-2,0-3.7-1.6-3.7-3.7V22.9   c0-2,1.6-3.7,3.7-3.7h38.7c2,0,3.7,1.6,3.7,3.7v20.4C47,45.4,45.4,47,43.3,47z"/><path fill="none" stroke="#FFFFFF" stroke-width="2" stroke-miterlimit="10" d="M21.4,19.2c-0.1-2.8,0.1-5.7,0.7-8.4   C22.4,9.4,22.8,8,23.6,7c1.3-1.7,3.1-1.9,4.8-1.3s3.2,1.7,4.8,2.4c1.4,0.6,2.9,0.7,4.4,0.5C38,8.5,38.4,8.4,38.8,8   c0.4-0.5,0.5-1.2,0.6-2c0.2-1.6,0.3-3.3,0.3-5"/><g><line fill="none" stroke="#FFFFFF" stroke-width="2" stroke-miterlimit="10" x1="5.4" y1="25.1" x2="7.6" y2="25.1"/><line fill="none" stroke="#FFFFFF" stroke-width="2" stroke-miterlimit="10" x1="10.3" y1="25.1" x2="12.6" y2="25.1"/><line fill="none" stroke="#FFFFFF" stroke-width="2" stroke-miterlimit="10" x1="15.2" y1="25.1" x2="17.5" y2="25.1"/><line fill="none" stroke="#FFFFFF" stroke-width="2" stroke-miterlimit="10" x1="20.2" y1="25.1" x2="22.4" y2="25.1"/><line fill="none" stroke="#FFFFFF" stroke-width="2" stroke-miterlimit="10" x1="25.1" y1="25.1" x2="27.4" y2="25.1"/><line fill="none" stroke="#FFFFFF" stroke-width="2" stroke-miterlimit="10" x1="30" y1="25.1" x2="32.3" y2="25.1"/><line fill="none" stroke="#FFFFFF" stroke-width="2" stroke-miterlimit="10" x1="35" y1="25.1" x2="37.2" y2="25.1"/><line fill="none" stroke="#FFFFFF" stroke-width="2" stroke-miterlimit="10" x1="39.9" y1="25.1" x2="42.2" y2="25.1"/></g><line fill="none" stroke="#FFFFFF" stroke-width="2" stroke-miterlimit="10" x1="7.8" y1="30.3" x2="10.1" y2="30.3"/><line fill="none" stroke="#FFFFFF" stroke-width="2" stroke-miterlimit="10" x1="12.8" y1="30.3" x2="15" y2="30.3"/><line fill="none" stroke="#FFFFFF" stroke-width="2" stroke-miterlimit="10" x1="17.7" y1="30.3" x2="20" y2="30.3"/><line fill="none" stroke="#FFFFFF" stroke-width="2" stroke-miterlimit="10" x1="22.6" y1="30.3" x2="24.9" y2="30.3"/><line fill="none" stroke="#FFFFFF" stroke-width="2" stroke-miterlimit="10" x1="27.6" y1="30.3" x2="29.8" y2="30.3"/><line fill="none" stroke="#FFFFFF" stroke-width="2" stroke-miterlimit="10" x1="32.5" y1="30.3" x2="34.8" y2="30.3"/><line fill="none" stroke="#FFFFFF" stroke-width="2" stroke-miterlimit="10" x1="37.4" y1="30.3" x2="39.7" y2="30.3"/><g><line fill="none" stroke="#FFFFFF" stroke-width="2" stroke-miterlimit="10" x1="5.4" y1="34.2" x2="7.6" y2="34.2"/><line fill="none" stroke="#FFFFFF" stroke-width="2" stroke-miterlimit="10" x1="10.3" y1="34.2" x2="12.6" y2="34.2"/><line fill="none" stroke="#FFFFFF" stroke-width="2" stroke-miterlimit="10" x1="15.2" y1="34.2" x2="17.5" y2="34.2"/><line fill="none" stroke="#FFFFFF" stroke-width="2" stroke-miterlimit="10" x1="20.2" y1="34.2" x2="22.4" y2="34.2"/><line fill="none" stroke="#FFFFFF" stroke-width="2" stroke-miterlimit="10" x1="25.1" y1="34.2" x2="27.4" y2="34.2"/><line fill="none" stroke="#FFFFFF" stroke-width="2" stroke-miterlimit="10" x1="30" y1="34.2" x2="32.3" y2="34.2"/><line fill="none" stroke="#FFFFFF" stroke-width="2" stroke-miterlimit="10" x1="35" y1="34.2" x2="37.2" y2="34.2"/><line fill="none" stroke="#FFFFFF" stroke-width="2" stroke-miterlimit="10" x1="39.9" y1="34.2" x2="42.2" y2="34.2"/></g><line fill="none" stroke="#FFFFFF" stroke-width="2" stroke-miterlimit="10" x1="7.8" y1="38.4" x2="10.1" y2="38.4"/><line fill="none" stroke="#FFFFFF" stroke-width="2" stroke-miterlimit="10" x1="12.8" y1="38.4" x2="15" y2="38.4"/><line fill="none" stroke="#FFFFFF" stroke-width="2" stroke-miterlimit="10" x1="17.7" y1="38.4" x2="20" y2="38.4"/><line fill="none" stroke="#FFFFFF" stroke-width="2" stroke-miterlimit="10" x1="22.6" y1="38.4" x2="24.9" y2="38.4"/><line fill="none" stroke="#FFFFFF" stroke-width="2" stroke-miterlimit="10" x1="27.6" y1="38.4" x2="29.8" y2="38.4"/><line fill="none" stroke="#FFFFFF" stroke-width="2" stroke-miterlimit="10" x1="32.5" y1="38.4" x2="34.8" y2="38.4"/><line fill="none" stroke="#FFFFFF" stroke-width="2" stroke-miterlimit="10" x1="37.4" y1="38.4" x2="39.7" y2="38.4"/><line fill="none" stroke="#FFFFFF" stroke-width="2" stroke-miterlimit="10" x1="5.4" y1="42.2" x2="7.6" y2="42.2"/><line fill="none" stroke="#FFFFFF" stroke-width="2" stroke-miterlimit="10" x1="10.3" y1="42.2" x2="12.6" y2="42.2"/><line fill="none" stroke="#FFFFFF" stroke-width="2" stroke-miterlimit="10" x1="15.2" y1="42.2" x2="26.8" y2="42.2"/><line fill="none" stroke="#FFFFFF" stroke-width="2" stroke-miterlimit="10" x1="30" y1="42.2" x2="32.3" y2="42.2"/><line fill="none" stroke="#FFFFFF" stroke-width="2" stroke-miterlimit="10" x1="35" y1="42.2" x2="37.2" y2="42.2"/><line fill="none" stroke="#FFFFFF" stroke-width="2" stroke-miterlimit="10" x1="39.9" y1="42.2" x2="42.2" y2="42.2"/></g></svg>
