<svg xmlns="http://www.w3.org/2000/svg" xmlns:xlink="http://www.w3.org/1999/xlink" version="1.1" x="0px" y="0px" viewBox="0 0 100 125" enable-background="new 0 0 100 100" xml:space="preserve"><path fill="#FFFFFF" d="M94.883,68.941l-0.039-24.644c0-2.969-2.28-5.384-5.082-5.384c-0.751,0-1.45,0.155-2.08,0.427l-0.001-6.582  c0-2.958-2.203-5.276-5.015-5.276c-0.742,0-1.438,0.169-2.066,0.459c-0.193-2.757-2.299-4.868-4.982-4.868  c-2.414,0-4.369,1.706-4.882,4.053c-0.655-0.322-1.382-0.516-2.165-0.516c-2.818,0-5.025,2.316-5.025,5.273v20.008  c-0.832-1.186-1.5-1.966-1.555-2.03c-1.881-2.212-4.327-2.712-6.72-1.372c-2.444,1.379-3.231,4.48-1.792,7.059l0.139,0.245  l0.211,0.177c0.037,0.031,3.771,3.229,4.622,9.12c0.126,0.882,0.233,1.669,0.331,2.388c0.294,2.168,0.506,3.735,0.92,5.381  l0.765,1.977c0.004,0.014,0.005,0.027,0.01,0.041c0.979,2.837,4.518,9.435,16.216,9.435h2.446c9.564,0,15.745-6.03,15.745-15.363  c0-0.001,0-0.002,0-0.003C94.883,68.943,94.883,68.942,94.883,68.941z M79.138,81.312h-2.446c-6.655,0-11.428-2.536-13.203-6.969  c-0.003-0.008-0.004-0.017-0.007-0.025l-0.894-2.281c-0.358-1.453-0.559-2.932-0.834-4.961c-0.099-0.726-0.207-1.521-0.335-2.411  c-0.896-6.207-4.434-9.863-5.423-10.778c-0.439-0.964-0.329-2.175,0.744-2.781c0.794-0.444,1.765-0.709,2.971,0.709  c0.028,0.032,2.788,3.256,3.918,6.489c0.007,0.021,0.019,0.037,0.026,0.057c0.02,0.049,0.042,0.095,0.066,0.142  c0.022,0.043,0.045,0.085,0.071,0.125c0.025,0.039,0.053,0.075,0.082,0.111c0.032,0.041,0.065,0.081,0.103,0.119  c0.029,0.029,0.061,0.057,0.093,0.084c0.043,0.037,0.087,0.073,0.134,0.105c0.031,0.021,0.063,0.039,0.097,0.058  c0.055,0.032,0.11,0.061,0.169,0.085c0.016,0.007,0.027,0.016,0.043,0.021c6.138,2.328,7.376,6.559,7.433,6.765  c0.177,0.673,0.784,1.119,1.45,1.119c0.122,0,0.247-0.015,0.371-0.047c0.803-0.204,1.288-1.021,1.083-1.823  c-0.058-0.229-1.47-5.417-8.324-8.419c0.009-0.064,0.02-0.129,0.02-0.195V31.884c0-1.129,0.695-2.273,2.025-2.273  c1.328,0,2.022,1.144,2.022,2.273l0.004,22.793c0,0.829,0.672,1.5,1.5,1.5c0.829,0,1.5-0.672,1.5-1.5v-0.803c0,0,0,0,0-0.001  l-0.004-25.527c0-1.129,0.695-2.272,2.024-2.272c1.326,0,2.021,1.143,2.021,2.273l0.001,4.404c0,0.003-0.001,0.006-0.001,0.009  l0.005,19.745v2.347c0,0.829,0.672,1.5,1.5,1.5c0.829,0,1.5-0.672,1.5-1.5v-0.428v-0.001v-1.918l-0.004-19.756  c0.004-1.127,0.699-2.266,2.027-2.266c1.322,0,2.015,1.145,2.015,2.277l0.002,11.297c0,0.008-0.002,0.015-0.002,0.022l0.004,11.436  c0,0.828,0.672,1.499,1.5,1.499c0,0,0,0,0.001,0c0.828,0,1.499-0.672,1.499-1.501v-1.086c0-0.002,0-0.003,0-0.004l-0.002-10.368  c0.011-1.261,0.861-2.141,2.079-2.141c1.148,0,2.082,1.069,2.082,2.386l0.039,24.645c0,0,0,0.001,0,0.002c0,0,0,0,0,0.001  C91.883,78.063,85.299,81.312,79.138,81.312z"/><path fill="#FFFFFF" d="M44.815,48.487c-2.39-1.337-4.837-0.835-6.707,1.366c-0.059,0.068-0.729,0.853-1.564,2.04V31.884  c0-2.957-2.208-5.273-5.027-5.273c-0.783,0-1.51,0.194-2.164,0.516c-0.514-2.347-2.469-4.052-4.883-4.052  c-2.682,0-4.787,2.112-4.981,4.869c-0.629-0.291-1.325-0.46-2.068-0.46c-2.812,0-5.015,2.318-5.015,5.276l-0.001,6.582  c-0.629-0.272-1.329-0.427-2.08-0.427c-2.801,0-5.081,2.415-5.081,5.381l-0.04,24.646c0,0.001,0,0.002,0,0.004  c0,0.001,0,0.002,0,0.003c0,9.333,6.181,15.363,15.746,15.363h2.44c11.706,0,15.243-6.599,16.22-9.436  c0.004-0.011,0.004-0.021,0.007-0.032l0.706-1.804l0.057-0.178c0.414-1.632,0.625-3.179,0.916-5.32c0.1-0.735,0.21-1.542,0.342-2.45  c0.847-5.892,4.583-9.089,4.616-9.117l0.216-0.179l0.137-0.245C48.052,52.973,47.266,49.871,44.815,48.487z M44.094,53.885  c-0.989,0.914-4.529,4.57-5.422,10.778c-0.133,0.916-0.244,1.731-0.345,2.475c-0.272,2.002-0.471,3.46-0.829,4.897l-0.893,2.282  c-0.006,0.017-0.008,0.033-0.014,0.05c-1.78,4.417-6.549,6.944-13.198,6.944h-2.44c-6.162,0-12.746-3.248-12.746-12.363  c0-0.001,0-0.001,0-0.001c0-0.001,0-0.002,0-0.002l0.04-24.647c0-1.314,0.933-2.384,2.081-2.384c1.22,0,2.072,0.884,2.079,2.149  l-0.001,10.36c0,0.001,0,0.002,0,0.002l0,1.089c0,0.828,0.671,1.5,1.5,1.5c0,0,0,0,0,0c0.828,0,1.5-0.672,1.5-1.5l0.002-11.435  c0-0.005-0.001-0.009-0.001-0.014l0.001-11.306c0-1.131,0.692-2.276,2.015-2.276c1.329,0,2.025,1.138,2.029,2.265l-0.003,19.757  l0,1.918v0.001v0.428c0,0.828,0.671,1.5,1.5,1.5c0,0,0,0,0,0c0.828,0,1.5-0.672,1.5-1.5l0-2.347l0.004-19.746  c0-0.003-0.001-0.006-0.001-0.009l0.001-4.404c0-1.129,0.693-2.272,2.019-2.272c1.33,0,2.025,1.143,2.025,2.272l-0.004,25.528  c0,0.001,0,0.001,0,0.002v0.802c0,0.828,0.671,1.5,1.5,1.5c0,0,0,0,0,0c0.828,0,1.5-0.671,1.5-1.5l0.004-22.794  c0-1.129,0.694-2.273,2.021-2.273c1.331,0,2.027,1.144,2.027,2.273v24.726c0,0.066,0.011,0.131,0.02,0.195  c-6.854,3.002-8.269,8.188-8.327,8.418c-0.204,0.798,0.275,1.604,1.071,1.814c0.128,0.034,0.256,0.05,0.382,0.05  c0.661,0,1.268-0.442,1.451-1.109c0.049-0.18,1.277-4.432,7.436-6.768c0.017-0.007,0.031-0.017,0.048-0.024  c0.054-0.022,0.105-0.049,0.157-0.078c0.037-0.021,0.073-0.041,0.108-0.065c0.043-0.029,0.084-0.062,0.125-0.098  c0.035-0.029,0.069-0.059,0.1-0.091c0.035-0.035,0.067-0.074,0.099-0.114c0.03-0.037,0.059-0.074,0.084-0.114  c0.026-0.039,0.048-0.081,0.071-0.124c0.024-0.046,0.047-0.093,0.066-0.142c0.008-0.02,0.02-0.036,0.026-0.057  c1.131-3.233,3.891-6.458,3.926-6.498c1.195-1.408,2.169-1.144,2.96-0.703C44.424,51.711,44.534,52.922,44.094,53.885z"/></svg>
