<svg xmlns="http://www.w3.org/2000/svg" xmlns:xlink="http://www.w3.org/1999/xlink" version="1.1" x="0px" y="0px" viewBox="0 0 100 125" enable-background="new 0 0 100 100" xml:space="preserve"><path fill="#FFFFFF" d="M51.806,28.071c-0.14-9.412-6.091-12.535-10.888-15.051c-4.62-2.421-7.231-4.014-7.231-8.566h-3.62  c0,6.964,4.874,9.516,9.173,11.774c4.729,2.48,8.824,4.625,8.946,11.842c-11.041,0.923-19.743,10.204-19.743,21.481v24.436  c0,11.888,9.67,21.558,21.558,21.558c11.888,0,21.558-9.67,21.558-21.558V49.552C71.558,38.271,62.851,28.99,51.806,28.071z   M51.131,31.65c8.973,0.561,16.182,7.752,16.766,16.716H51.131V31.65z M48.869,31.65v16.716H32.103  C32.687,39.402,39.895,32.212,48.869,31.65z M67.938,73.988c0,9.892-8.046,17.938-17.938,17.938  c-9.887,0-17.938-8.046-17.938-17.938V50.629h35.876V73.988z"/></svg>
