<svg xmlns="http://www.w3.org/2000/svg" xmlns:xlink="http://www.w3.org/1999/xlink" version="1.1" x="0px" y="0px" viewBox="0 0 100 125" enable-background="new 0 0 100 100" xml:space="preserve"><g><path fill="#FFFFFF" d="M83.799,21.369H70.185c-0.713,0-1.293,0.579-1.293,1.291v2.912l-6.056-3.497c-0.393-0.228-0.899-0.228-1.293,0   c-0.398,0.23-0.646,0.659-0.646,1.119v8.577c0,0.459,0.247,0.888,0.646,1.118c0.391,0.228,0.902,0.228,1.293,0.001l6.056-3.498   v3.48c0,0.711,0.58,1.291,1.293,1.291h13.614c0.713,0,1.292-0.58,1.292-1.291V22.66C85.091,21.948,84.512,21.369,83.799,21.369z"/><path fill="#FFFFFF" d="M75.792,45.967l-10.877-3.828c-0.732-0.259-1.546-0.259-2.147,0c-0.605,0.258-0.906,0.742-0.786,1.273l0.261,1.149   l-12.126,0.029l-0.328-7.647h1.282c0.008,0,0.014,0,0.02,0c1.105,0,1.935-0.557,1.854-1.232c-0.033-0.275-0.217-0.528-0.492-0.729   l-4.984-4.691c-0.334-0.316-0.934-0.51-1.576-0.51c-0.645,0-1.236,0.193-1.559,0.51l-4.928,4.82   c-0.379,0.369-0.415,0.832-0.093,1.212c0.328,0.382,0.972,0.62,1.686,0.62h1.626l-0.187,6.57l-0.046,1.067l-12.259-0.02   l0.216-1.149c0.098-0.531-0.223-1.016-0.838-1.273c-0.612-0.259-1.428-0.259-2.148,0l-10.725,3.828   c-0.803,0.285-1.43,0.821-1.648,1.407c-0.219,0.597,0.021,1.155,0.634,1.46l9.156,4.562c0.343,0.171,0.755,0.258,1.181,0.258   c0.428,0,0.871-0.087,1.29-0.258c0.83-0.341,1.415-0.962,1.538-1.625l0.293-1.571l12.993,0.002l-0.149,5.229l-0.258,6.021h-1.937   c-0.966,0-1.888,0.438-2.429,1.157c-0.547,0.729-0.623,1.646-0.184,2.4l6.998,12.048c0.562,0.969,1.616,1.574,2.758,1.574   c1.141,0,2.172-0.605,2.692-1.574l6.513-12.048c0.412-0.756,0.301-1.672-0.279-2.4c-0.567-0.72-1.51-1.157-2.475-1.157h-2.042   l-0.787-11.25l13.025-0.002l0.356,1.571c0.149,0.663,0.762,1.284,1.604,1.625c0.424,0.171,0.875,0.258,1.303,0.258   c0.425,0,0.834-0.087,1.168-0.258l8.973-4.562c0.604-0.305,0.818-0.863,0.575-1.46C77.259,46.788,76.606,46.252,75.792,45.967z"/></g></svg>
