<svg xmlns="http://www.w3.org/2000/svg" xmlns:xlink="http://www.w3.org/1999/xlink" version="1.1" x="0px" y="0px" viewBox="0 0 100 125" enable-background="new 0 0 100 100" xml:space="preserve"><g><path fill="#FFFFFF" d="M83.975,21.305H69.066c-0.781,0-1.416,0.635-1.416,1.416v3.188l-6.631-3.83c-0.43-0.248-0.986-0.248-1.416,0   c-0.438,0.253-0.709,0.723-0.709,1.227v9.393c0,0.502,0.271,0.971,0.709,1.225c0.428,0.248,0.986,0.248,1.414,0l6.633-3.83v3.811   c0,0.779,0.635,1.415,1.416,1.415h14.908c0.779,0,1.414-0.636,1.414-1.415V22.721C85.389,21.939,84.754,21.305,83.975,21.305z"/><path fill="#FFFFFF" stroke="#FFFFFF" d="M39.799,30.065c-6.506,0-12.613,2.526-17.201,7.112c-1.959,1.961-3.551,4.213-4.738,6.706l-2.012-2.386   c-0.188-0.225-0.5-0.312-0.791-0.203c-0.281,0.109-0.459,0.386-0.445,0.685L15.16,54.66c0.01,0.287,0.191,0.535,0.463,0.633   c0.254,0.09,0.533,0.04,0.76-0.191l8.488-9.438c0.203-0.223,0.24-0.549,0.094-0.811c-0.123-0.223-0.359-0.361-0.615-0.361   c-0.025,0-0.102,0.007-0.125,0.011l-2.721,0.501c0.975-1.906,2.236-3.64,3.758-5.162c3.877-3.877,9.039-6.012,14.537-6.012   s10.66,2.135,14.537,6.012s6.012,9.039,6.012,14.537c0.002,5.498-2.135,10.662-6.01,14.539c-3.877,3.877-9.041,6.012-14.539,6.012   s-10.662-2.135-14.539-6.012c-1.715-1.715-3.088-3.697-4.092-5.859c0,0-0.793-1.962-0.9-2.289l-0.021,0.014   c-0.166-0.471-0.504-0.852-0.951-1.067c-0.449-0.218-0.959-0.252-1.439-0.087c-0.457,0.157-0.846,0.51-1.064,0.963   c-0.221,0.455-0.256,0.977-0.1,1.434c0.078,0.225,0.174,0.44,0.258,0.662l-0.012,0.007c1.205,3.324,3.123,6.351,5.66,8.886   c4.586,4.588,10.695,7.113,17.201,7.115l0,0c6.506,0,12.615-2.527,17.201-7.115c9.484-9.483,9.484-24.916-0.002-34.402   C52.412,32.592,46.305,30.065,39.799,30.065z"/></g></svg>
