<svg xmlns:dc="http://purl.org/dc/elements/1.1/" xmlns:cc="http://creativecommons.org/ns#" xmlns:rdf="http://www.w3.org/1999/02/22-rdf-syntax-ns#" xmlns:svg="http://www.w3.org/2000/svg" xmlns="http://www.w3.org/2000/svg" xmlns:sodipodi="http://sodipodi.sourceforge.net/DTD/sodipodi-0.dtd" xmlns:inkscape="http://www.inkscape.org/namespaces/inkscape" version="1.1" x="0px" y="0px" viewBox="0 0 100 125"><g transform="translate(0,-952.36218)"><path style="text-indent:0;text-transform:none;direction:ltr;block-progression:tb;baseline-shift:baseline;color:#FFFFFF;enable-background:accumulate;" d="m 60.401369,960.51496 c -17.3027,0 -31.375,14.0723 -31.375,31.375 0,17.30274 14.0723,31.40624 31.375,31.40624 17.3027,0 31.4687,-14.1035 31.4687,-31.40624 0,-17.3028 -14.166,-31.375 -31.4687,-31.375 z m 0,6.8437 c 13.6031,0 24.5937,10.9282 24.5937,24.5313 0,13.60304 -10.9906,24.56254 -24.5937,24.56254 -13.6031,0 -24.5313,-10.9595 -24.5313,-24.56254 0,-13.6031 10.9282,-24.5313 24.5313,-24.5313 z m -0.031,9.2188 a 3.4231915,3.4231915 0 0 0 -3.375,3.4687 l 0,8.4375 -8.4375,0 a 3.4231915,3.4231915 0 1 0 0,6.8438 l 8.4375,0 0,8.43754 a 3.4231915,3.4231915 0 1 0 6.8437,0 l 0,-8.43754 8.4376,0 a 3.4231915,3.4231915 0 1 0 0,-6.8438 l -8.4376,0 0,-8.4375 a 3.4231915,3.4231915 0 0 0 -3.4687,-3.4687 z m -25.9687,37.84374 a 3.4231915,3.4231915 0 0 0 -2.3441,1.0313 l -22.7500004,22.75 a 3.4231915,3.4231915 0 1 0 4.8438004,4.8125 l 22.7187,-22.7188 a 3.4231915,3.4231915 0 0 0 -2.4687,-5.875 z" fill="#FFFFFF" fill-opacity="1" stroke="none" marker="none" visibility="visible" display="inline" overflow="visible"/></g></svg>
